<?xml version="1.0" standalone="no"?>
<!DOCTYPE svg PUBLIC "-//W3C//DTD SVG 20010904//EN"
 "http://www.w3.org/TR/2001/REC-SVG-20010904/DTD/svg10.dtd">
<svg version="1.0" xmlns="http://www.w3.org/2000/svg"
 width="305.000000pt" height="305.000000pt" viewBox="0 0 305.000000 305.000000"
 preserveAspectRatio="xMidYMid meet">
<metadata>
Created by potrace 1.14, written by Peter Selinger 2001-2017
</metadata>
<g transform="translate(0.000000,305.000000) scale(0.100000,-0.100000)"
fill="#000000" stroke="none">
<path d="M1410 2977 c-3 -3 -32 -7 -65 -11 -198 -21 -444 -116 -633 -245 -330
-226 -562 -591 -627 -986 -12 -73 -21 -209 -19 -285 5 -134 19 -228 55 -357
108 -385 366 -712 714 -904 130 -72 296 -134 414 -154 19 -3 37 -7 40 -9 13
-8 152 -19 252 -20 419 -6 841 186 1120 510 69 80 79 93 124 163 95 147 185
365 210 506 2 17 7 41 10 55 10 45 19 164 19 255 1 303 -85 579 -261 843 -76
115 -271 309 -385 386 -179 119 -382 200 -584 235 -92 16 -372 29 -384 18z
m330 -152 c657 -99 1144 -668 1144 -1335 -1 -304 -104 -598 -292 -835 -225
-283 -562 -469 -907 -500 -238 -22 -437 6 -644 91 -404 166 -707 527 -800 953
-27 121 -32 171 -32 289 0 128 7 191 36 317 58 245 175 454 360 641 157 158
329 263 546 332 95 30 122 37 214 48 28 4 52 8 54 10 9 8 246 0 321 -11z"/>
<path d="M1361 2693 c-99 -15 -272 -68 -356 -110 -328 -166 -564 -457 -654
-809 -31 -120 -40 -197 -36 -339 4 -189 37 -326 119 -500 120 -253 316 -450
571 -574 197 -96 359 -131 575 -126 166 4 255 20 395 72 355 130 629 413 749
774 19 57 38 122 41 144 16 107 20 157 20 245 0 85 -3 127 -19 235 -17 116
-94 307 -171 427 -197 306 -485 494 -865 564 -68 12 -276 11 -369 -3z m349
-67 c13 -3 42 -8 65 -11 111 -16 307 -98 425 -178 224 -151 396 -387 472 -647
41 -143 55 -344 33 -490 -75 -508 -489 -917 -997 -987 -101 -14 -338 -6 -391
12 -7 3 -24 6 -39 9 -15 2 -62 17 -105 31 -482 167 -800 622 -788 1130 4 158
24 260 77 395 103 264 315 498 563 623 105 52 292 107 410 119 44 5 246 0 275
-6z"/>
<path d="M1340 2499 c-113 -23 -167 -42 -275 -94 -201 -99 -379 -275 -482
-478 -40 -81 -88 -221 -98 -292 -4 -27 -9 -61 -11 -75 -6 -39 -5 -200 1 -254
46 -379 305 -714 665 -863 445 -185 964 -43 1262 344 250 324 292 768 107
1137 -215 430 -701 670 -1169 575z m408 -54 c255 -53 469 -191 630 -406 23
-31 42 -59 42 -63 0 -3 10 -23 23 -44 49 -79 95 -210 115 -325 4 -23 7 -105 7
-182 -1 -112 -6 -158 -24 -230 -27 -105 -90 -245 -151 -336 -52 -75 -164 -190
-240 -245 -526 -381 -1268 -186 -1537 404 -68 150 -88 252 -86 447 1 150 27
269 87 399 101 219 292 412 503 507 86 40 225 79 303 86 36 3 66 6 68 8 8 7
200 -7 260 -20z"/>
</g>
</svg>
